<svg width="1080" height="1920" viewBox="0 0 1080 1920" fill="none" xmlns="http://www.w3.org/2000/svg">
    <rect y="1920" width="1920" height="1080" transform="rotate(-90 0 1920)" fill="#2D2D2D"/>
    <g clip-path="url(#clip0_622_1810)">
        <mask id="mask0_622_1810" style="mask-type:luminance" maskUnits="userSpaceOnUse" x="-65" y="-993" width="1697" height="3014">
            <path d="M-64.1562 -992.557L-64.1562 2020.43H1631.92L1631.92 -992.557H-64.1562Z" fill="white"/>
        </mask>
        <g mask="url(#mask0_622_1810)">
            <path d="M-102.963 1021.08C-51.4701 1048.48 0.0226544 1075.87 51.5154 1103.24C66.5766 1111.27 82.0447 1119.31 98.7002 1119.03C127.94 1118.38 151.38 1091.91 177.194 1075.72C195.795 1064.8 215.611 1057.06 236.048 1052.74C299.733 1037.31 365.356 1036.83 429.197 1051.33C457.657 1057.8 486.049 1067.4 514.984 1065.92C546.735 1064.39 577.264 1049.85 608.981 1048.24C628.282 1047.28 648.397 1051.05 666.41 1042.74C702.095 1026.27 713.018 971.63 743.581 944.232C762.102 927.64 786.933 922.016 803.317 902.492C821.702 880.597 824.823 847.013 826.485 816.2C830.465 742.334 831.969 668.375 830.997 594.323C830.454 551.739 828.86 507.99 814.409 468.982C804.911 443.391 790.087 420.493 783.608 393.577C774.517 355.613 783.235 315.198 791.953 277.074C811.594 191.183 837.442 95.8521 904.131 54.9958C958.643 21.6118 1033.47 30.0482 1071.5 -26.9979C1088.97 -53.2311 1096.13 -90.7932 1120.86 -106.822C1147.21 -123.896 1179.4 -107.907 1209.42 -107.063C1243.35 -106.139 1275.13 -125.021 1308.64 -130.404C1374.76 -141.01 1439.21 -98.7475 1505.93 -97.9842C1536.38 -97.97 1566.4 -106.508 1593.53 -122.899C1620.65 -139.289 1644.11 -163.063 1661.97 -192.271" stroke="#03fc56" stroke-width="3" stroke-miterlimit="10"/>
            <path d="M1010.47 2093.62C1039.14 2066.67 1041 2014.36 1027.81 1973.95C1014.61 1933.54 989.443 1900.39 970.447 1863.39C943.751 1811.77 928.825 1753.04 914.883 1694.67C885.066 1570.13 858.336 1438.08 885.372 1312.66C896.837 1259.35 925.23 1202.42 971.329 1195.64C994.192 1192.3 1016.78 1202.22 1038.29 1211.99L1165.29 1269.63C1211.6 1290.64 1260.61 1312.02 1309.53 1302.58C1364.48 1291.97 1411.87 1239.18 1424.22 1174.91C1434.22 1122.68 1423.78 1063.31 1448.94 1018.95C1470.45 981.031 1512.01 966.729 1550.71 964.841C1577.51 963.676 1605.93 968.015 1627.1 987.499C1646.57 1005.42 1665.2 1037.15 1688.6 1027.67" stroke="#03fc56" stroke-width="3" stroke-miterlimit="10"/>
            <path d="M902.054 2050.68C911.077 2058.19 919.93 2040.44 920.303 2027.38C922 1963.1 901.443 1901.68 882.99 1841.3C827.291 1656.58 790.283 1453.99 834.245 1265.17C844.421 1220.78 860.127 1176.27 888.757 1145.13C936.45 1093.31 1009.65 1090.22 1072.51 1108.53C1135.37 1126.85 1193.74 1163.09 1256.74 1180.85C1273.7 1185.59 1292.12 1188.88 1307.92 1180.28C1320.1 1173.7 1329.09 1160.88 1335.98 1147.26C1366.91 1086.2 1362.4 1006.05 1395.81 946.837C1423.19 898.228 1472.44 871.914 1521.32 864.763C1570.2 857.612 1619.69 867.093 1668.47 876.614" stroke="#03fc56" stroke-miterlimit="10"/>
            <path d="M1116.65 2102.1C1126.25 2079.12 1126.83 2052.45 1126.39 2026.78C1126.71 2007.53 1125.06 1988.31 1121.47 1969.53C1113.97 1936.07 1095.48 1907.94 1079 1879.26C1016.16 1771.11 975.424 1647.14 960.003 1517.14C955.288 1477.45 945.247 1436.99 950.709 1396.86C956.475 1354.52 980.458 1312.82 1015.77 1303.38C1044.94 1295.58 1074.56 1310.53 1102.37 1323.46C1175 1357.17 1254.51 1379.1 1330.93 1360.78C1407.36 1342.47 1479.34 1276.14 1494.87 1185.59C1498.71 1163.17 1499.25 1139.51 1507.59 1118.9C1521.98 1083.51 1557.8 1065.07 1590.84 1068.28C1623.88 1071.5 1654.03 1092.91 1678.35 1119.58" stroke="#03fc56" stroke-miterlimit="10"/>
            <path d="M1113.28 1777.98C1140.69 1870.38 1169.39 1965.71 1224.61 2038.83C1262.34 2088.72 1325.09 2127.33 1374.11 2093.91C1384.17 2087.07 1392.81 2077.64 1399.38 2066.31C1413.73 2041.48 1416.95 2009.86 1416.1 1979.77C1413.25 1880.27 1371.36 1788.99 1330.52 1701.98C1299.41 1635.73 1266.81 1568.72 1223.02 1512.92C1189.88 1470.7 1122.07 1399.31 1067.9 1410.16C975.055 1428.8 1097.82 1725.68 1113.28 1777.98Z" stroke="#03fc56" stroke-miterlimit="10"/>
            <path d="M822.441 2056.91C833.974 2048.63 835.365 2029.75 834.958 2013.76C830.514 1844.63 770.066 1684.9 747.17 1517.9C737.807 1449.61 734.721 1380.31 722 1313.02C711.349 1256.37 689.707 1195.99 644.965 1172.41C607.652 1152.61 564.368 1163.74 523.561 1159.72C485.841 1156.02 449.986 1139.23 412.978 1129.91C351.558 1114.63 287.749 1120.08 228.82 1145.66C197.85 1159.16 168.033 1178.32 135.299 1183.26C49.1055 1195.95 -26.437 1109.14 -113.004 1100.46" stroke="#03fc56" stroke-miterlimit="10"/>
            <path d="M761.862 2059.68C783.504 1982.35 760.336 1898.74 740.526 1820.73C707.18 1689.4 683.037 1555.03 668.341 1419C663.863 1377.42 659.657 1333.71 639.101 1299.56C614.881 1259.39 572.276 1240.35 530.96 1233.76C489.643 1227.17 447.547 1230.79 406.163 1224.8C377.737 1220.78 348.87 1212.1 320.885 1219.38C294.223 1226.33 271.834 1246.89 247.479 1261.48C219.18 1278.07 188.074 1286.84 156.5 1287.14C124.925 1287.44 93.7047 1279.26 65.1857 1263.2C43.6456 1250.63 24.0391 1233.88 2.70253 1220.98C-37.0194 1197.4 -81.4563 1188.08 -125.215 1179" stroke="#03fc56" stroke-miterlimit="10"/>
            <path d="M679.435 2045.78C704.198 1967.92 691.036 1880.5 669.564 1801.32C643.444 1704.91 620.31 1608.73 605.113 1507.54C593.309 1428.07 562.678 1364.12 492.63 1343.51C443.444 1329 389.678 1329.25 339.746 1337.56C291.408 1345.6 248.599 1380.67 199.447 1382.56C149.04 1384.44 100.532 1367.21 55.0097 1342.9C2.1601 1314.78 -53.3014 1278.23 -113.41 1288.23" stroke="#03fc56" stroke-miterlimit="10"/>
            <path d="M239.744 1907.94C263.808 1968.13 300.795 2019.77 347.004 2057.71C392.739 2096.06 446.601 2118.54 502.534 2122.63C528.383 2124.24 555.927 2121.14 576.992 2103.31C614.272 2071.85 617.664 2009.02 615.968 1955.03C614.448 1884.89 609.123 1814.93 600.025 1745.6C590.391 1675.94 575.466 1607.49 552.195 1543.61C534.963 1496.33 508.81 1445.07 467.595 1423.53C420.105 1398.67 362.065 1413.73 317.459 1441.05C257.044 1478.09 234.961 1562.85 219.765 1635.73C200.972 1725.76 206.501 1823.58 239.744 1907.94Z" stroke="#03fc56" stroke-miterlimit="10"/>
            <path d="M337.744 1506.21C293.647 1533.53 275.363 1593.23 263.66 1648.46C262.744 1652.48 261.896 1656.78 261.082 1660.88C247.653 1726.48 251.079 1795.33 270.919 1858.61C272.887 1864.72 275.058 1870.66 277.364 1876.77C296.073 1924.49 324.876 1965.67 360.981 1996.33C366.023 2000.66 371.213 2004.76 376.55 2008.62C408.704 2032.71 445.571 2046.55 483.572 2048.79C487.168 2048.79 490.797 2048.79 494.427 2048.79C511.388 2048.23 528.348 2043.85 541.917 2031.96C570.343 2007.13 573.396 1958.24 572.446 1915.46C571.903 1893.24 571.021 1870.7 569.631 1848.05C567.663 1815.91 564.712 1783.33 560.302 1751.15C553.283 1696.71 540.826 1643.46 523.192 1592.5C509.285 1553.41 488.491 1511.63 455.96 1493.52C418.782 1473.15 373.43 1483.87 337.744 1506.21Z" stroke="#03fc56" stroke-miterlimit="10"/>
            <path d="M358.028 1571.09C325.938 1591.5 312.37 1635.17 304.161 1676.67L302.397 1685.83C293.2 1734.41 295.955 1785.11 310.335 1831.9C311.759 1836.44 313.32 1840.94 314.982 1845.35C328.293 1880.81 348.902 1911.75 374.921 1935.34C378.584 1938.68 382.35 1941.81 386.149 1944.78C409.333 1963.54 436.548 1974.09 464.609 1975.19C467.255 1975.19 469.934 1975.19 472.614 1974.99C485.02 1974.6 497.031 1969.74 507.044 1961.05C526.787 1942.81 529.432 1907.86 528.991 1876.29C528.686 1860.22 528.143 1843.91 527.194 1827.4C525.871 1804.1 523.801 1780.47 520.647 1757.09C515.556 1717.62 506.714 1678.96 494.29 1641.84C483.706 1610.9 468.272 1578.48 444.426 1563.94C417.526 1547.55 384.69 1554.1 358.028 1571.09Z" stroke="#03fc56" stroke-miterlimit="10"/>
            <path d="M378.316 1636.13C358.438 1649.51 349.585 1677.27 344.7 1705.03L343.717 1710.9C338.716 1742.44 340.775 1774.99 349.687 1805.3C350.569 1808.24 351.485 1811.17 352.502 1814.06C360.498 1837.2 372.923 1857.83 388.798 1874.32C391.071 1876.61 393.377 1878.78 395.582 1880.87C410.677 1894.29 427.706 1902.24 445.48 1901.56C447.176 1901.56 448.873 1901.36 450.569 1901.12C458.458 1900.08 465.892 1896.21 471.871 1890.03C482.997 1878.5 485.44 1857.41 485.44 1837.08C485.44 1827.2 485.168 1816.99 484.659 1806.67C483.947 1792.29 482.726 1777.58 480.86 1762.92C477.809 1738.38 472.614 1714.28 465.358 1691.01C458.235 1668.11 448.058 1645.25 432.828 1634.17C416.206 1622.03 395.955 1624.28 378.316 1636.13Z" stroke="#03fc56" stroke-miterlimit="10"/>
            <path d="M428.962 1827C432.318 1825.39 435.165 1822.58 437.103 1818.96C440.869 1812.49 442.497 1800.24 442.293 1785.86C441.95 1770.41 439.967 1755.08 436.391 1740.22C432.795 1725.44 427.639 1712.1 421.262 1704.55C414.885 1697 407.219 1694.51 398.603 1701.34C390.733 1707.6 386.527 1719.49 385.238 1733.47C384.132 1748.75 385.455 1764.13 389.139 1778.83C392.183 1792.73 397.725 1805.7 405.387 1816.83C412.307 1825.91 420.414 1830.45 428.962 1827Z" stroke="#03fc56" stroke-miterlimit="10"/>
            <path d="M-90.5801 1379.67C-74.4675 1364.56 -51.8759 1362.39 -31.8284 1367.62C-11.7809 1372.84 6.50264 1384.93 24.8201 1395.98C53.0961 1413.13 82.1293 1428.47 111.794 1441.94C128.416 1449.41 146.157 1457.12 156.944 1473.83C167.731 1490.55 169.46 1513.2 169.63 1534.38C170.309 1620.43 154.162 1706.04 157.995 1791.97C163.22 1900.55 199.918 2003.68 261.896 2083.94" stroke="#03fc56" stroke-miterlimit="10"/>
            <path d="M179.334 2059.44C143.241 2007.85 130.283 1939.16 123.601 1872.63C116.412 1801.44 115.083 1729.6 119.632 1658.1C121.26 1632.07 123.702 1605.88 121.837 1579.97C119.971 1554.06 113.458 1527.74 99.2109 1507.66C85.6423 1488.73 66.3748 1477.16 47.243 1467.12C25.5332 1455.75 3.14495 1445.63 -20.6002 1442.57C-44.3453 1439.52 -69.142 1444.26 -88.4434 1460.33" stroke="#03fc56" stroke-miterlimit="10"/>
            <path d="M-3.63968 1535.94C15.6277 1542.61 33.1312 1554.02 44.1557 1568.52C66.7474 1598.29 65.5941 1641.76 68.5453 1679.36C72.1749 1725.68 74.4137 1772.2 74.9225 1818.76C75.4313 1873.28 81.2319 1942.05 59.2508 1991.95C52.6963 2006.49 43.3172 2018.97 31.8871 2028.37C20.4569 2037.77 7.30323 2043.82 -6.48909 2046.02C-91.8017 2058.8 -102.996 1951.77 -110.221 1878.02C-117.005 1807.79 -126.469 1736.41 -122.942 1665.54C-120.872 1624.28 -117.446 1567.36 -84.7799 1542.53C-63.8843 1526.62 -31.8624 1526.3 -3.63968 1535.94Z" stroke="#03fc56" stroke-miterlimit="10"/>
            <path d="M-67.2431 1855.72C-72.9418 1811.29 -80.0992 1765.57 -78.8781 1719.97C-78.1996 1692.86 -74.7736 1659.71 -59.4412 1639.23C-46.5172 1621.91 -26.6393 1618.42 -8.55927 1627.17C3.07166 1632.77 12.8884 1642.63 19.4597 1655.3C29.3308 1674.38 29.8396 1698.08 31.0268 1720.46L31.3321 1725.28C33.2996 1754.2 35.5045 1783.25 36.3864 1812.29C37.2344 1837.76 39.134 1867.01 34.419 1893.44C32.8695 1902.77 29.9167 1911.7 25.7012 1919.8C21.4857 1927.32 15.848 1933.57 9.23561 1938.06C2.62319 1942.55 -4.78201 1945.16 -12.3924 1945.67C-56.6257 1948.72 -62.2566 1894.61 -67.2431 1855.72Z" stroke="#03fc56" stroke-miterlimit="10"/>
            <path d="M-24.2653 1833.42C-23.0752 1837.76 -21.0685 1841.71 -18.3969 1844.99C-17.0286 1846.6 -15.2845 1847.68 -13.3911 1848.09C-11.4976 1848.51 -9.54244 1848.24 -7.77952 1847.32C-6.45155 1846.23 -5.31867 1844.84 -4.44561 1843.22C-3.57255 1841.61 -2.97644 1839.81 -2.69133 1837.92C2.49863 1815.55 -5.81209 1792.13 -6.08346 1768.95C-6.08346 1759.87 -4.96406 1750.79 -5.40504 1741.71C-6.89757 1711.06 -31.0835 1702.54 -34.2381 1735.88C-37.4338 1768.87 -34.0171 1802.29 -24.2653 1833.42Z" stroke="#03fc56" stroke-miterlimit="10"/>
            <path d="M724.624 1149.84C726.624 1156.85 729.935 1163.24 734.311 1168.53C738.686 1173.81 744.014 1177.86 749.895 1180.37C766.856 1186.52 784.97 1175.63 797.385 1160.89C809.8 1146.14 818.789 1127.58 831.069 1112.68C842.195 1099.14 855.798 1088.9 868.382 1077.21C880.967 1065.52 892.738 1051.62 898.301 1033.9C903.864 1016.18 901.693 993.967 889.549 981.674C862.005 953.794 785.919 959.659 759.936 990.874C731.815 1024.62 710.818 1105.93 724.624 1149.84Z" stroke="#03fc56" stroke-miterlimit="10"/>
            <path d="M976.724 979.945C1002.57 1004.05 1033.68 1019.03 1064.34 1033.54C1100.77 1050.73 1137.2 1067.94 1173.6 1085.16C1190.09 1092.95 1206.85 1100.83 1224.49 1102.39C1242.13 1103.96 1261.22 1098.38 1273.03 1082.55C1281.71 1071.02 1285.55 1055.59 1288.7 1040.61C1326.22 861.192 1297.01 672.137 1258.17 493.124C1235.34 388.111 1207.59 280.527 1147.48 198.774C1132.8 178.687 1116.01 160.368 1095.69 149.401C1078.26 140.675 1059.56 136.062 1040.63 135.823C978.488 133.211 910.408 167.118 886.968 235.332C877.368 263.453 876.045 294.105 874.824 324.235C874.179 340.305 873.535 356.736 876.554 372.443C879.946 390.642 888.155 407.033 895.007 423.865C925.706 499.311 929.437 586.969 909.559 666.874C892.056 737.177 889.987 796.232 911.764 867.419C924.892 910.565 946.127 951.14 976.724 979.945Z" stroke="#03fc56" stroke-miterlimit="10"/>
            <path d="M1005.39 879.953C1023.71 901.405 1046.57 917.032 1071.1 929.325C1097.38 942.502 1124.32 954.313 1151.01 965.481C1163.09 970.463 1175.34 975.283 1188.09 975.685C1200.85 976.087 1214.38 971.427 1222.89 959.937C1229.27 951.3 1232.26 939.851 1234.63 928.964C1240.53 900.635 1244.21 871.722 1245.62 842.592C1251.39 736.133 1234.63 627.465 1213.74 522.934C1198.06 443.03 1179.31 358.707 1135.11 294.711C1124.28 279.043 1111.84 264.461 1096.67 255.341C1084.25 248.332 1070.79 244.239 1057.05 243.289C1011.7 238.87 962.818 262.331 944.704 313.994C937.615 334.281 936.258 356.618 935.104 378.633C934.096 390.34 934.346 402.151 935.851 413.784C938.022 427.081 943.381 439.173 947.893 451.587C968.246 507.307 970.485 571.142 958.069 629.232C946.434 684.028 945.688 732.116 960.41 788.037C969.603 822.586 984.257 855.166 1005.39 879.953Z" stroke="#03fc56" stroke-miterlimit="10"/>
            <path d="M1034.08 780.006C1044.92 799.49 1060.05 815.102 1077.83 825.16C1094.08 833.911 1111 840.747 1128.38 845.568C1135.94 848.098 1143.79 849.196 1151.65 848.822C1159.71 848.341 1167.28 844.128 1172.75 837.092C1176.54 831.146 1179.19 824.291 1180.51 817.005C1184.4 798.594 1186.58 779.734 1186.99 760.763C1189.5 691.343 1180.21 620.919 1169.32 552.424C1160.6 497.708 1151.07 436.604 1122.78 390.365C1116.13 378.721 1107.62 368.743 1097.71 360.998C1090.25 355.843 1082.05 352.369 1073.53 350.754C1044.93 344.366 1015.25 357.503 1002.49 392.655C998.379 405.594 995.998 419.217 995.438 433.029C994.67 440.36 994.579 447.769 995.167 455.124C996.427 463.347 998.323 471.416 1000.83 479.228C1010.22 515.654 1012.27 554.177 1006.84 591.713C1001.02 630.536 1001.86 670.349 1009.31 708.778C1013.8 734.123 1022.19 758.27 1034.08 780.006Z" stroke="#03fc56" stroke-miterlimit="10"/>
            <path d="M1062.75 680.055C1065.53 696.366 1072.52 712.515 1084.59 721.032C1096.67 729.549 1114.31 727.821 1122.59 714.363C1128.66 704.561 1128.66 691.424 1128.39 679.292C1127.59 646.966 1126.46 614.627 1124.99 582.274C1123.26 545.154 1122.55 495.339 1098.81 466.977C1083.61 448.779 1069.7 448.417 1060.31 471.517C1050.91 494.616 1053.52 529.165 1055.56 554.032C1058.64 594.888 1055.96 640.164 1062.75 680.055Z" stroke="#03fc56" stroke-miterlimit="10"/>
            <path d="M-96.4154 892.237C-46.7204 950.207 11.2515 1012.07 80.9941 1009.74C113.016 1008.58 143.342 993.674 174.075 982.787C233.627 962.036 296.31 957.098 357.658 968.325C396.939 975.556 435.372 989.416 475.027 993.433C514.681 997.451 557.252 990.34 587.951 960.371C613.257 935.745 629.471 896.857 659.899 882.435C679.505 873.155 703.997 874.761 718.617 856.884C726.181 847.765 729.675 835.07 732.864 822.898C753.997 742.19 771.297 652.563 742.328 575.35C722.857 523.446 683.746 481.746 674.96 425.905C667.836 380.429 682.287 334.39 683.746 288.191C686.425 202.542 639.139 117.856 571.533 87.3245C532.523 69.6483 489.715 69.126 447.957 69.0858C348.805 69.0858 240.561 66.6754 164.204 -8.20761C135.472 -36.3289 113.491 -73.1277 85.0647 -101.731C55.1473 -131.183 19.3382 -151.031 -18.9236 -159.367C-57.1853 -167.704 -96.6143 -164.25 -133.424 -149.336" stroke="#03fc56" stroke-miterlimit="10"/>
            <path d="M438.082 386.502C473.598 385.056 510.063 379.271 540.864 358.381C571.664 337.491 595.749 298.483 594.358 256.462C592.967 214.441 566.033 177.321 533.842 158.52C501.651 139.719 464.914 135.782 429.059 133.975C359.35 130.439 255.72 116.419 212.572 198.894C175.259 270.081 222.07 343.517 281.094 366.375C330.347 385.377 386.691 388.631 438.082 386.502Z" stroke="#03fc56" stroke-miterlimit="10"/>
            <path d="M-97.6367 232.992C-40.7844 207.723 24.4805 223.672 77.5337 258.583C86.5907 264.528 95.6138 271.117 105.722 273.688C115.831 276.259 127.636 274.009 134.318 264.609C145.987 248.258 136.184 223.351 138.626 202.139C141.204 179.522 157.961 161.725 159.963 139.027C161.964 116.33 148.497 95.56 133.165 81.6601C117.832 67.7602 99.9218 57.7973 86.3872 41.487C72.8525 25.1767 64.7792 4.00547 52.2622 -13.1485C19.528 -58.062 -35.4248 -66.9 -85.2554 -72.6046" stroke="#03fc56" stroke-miterlimit="10"/>
            <path d="M-79.0137 151.932C-34.6394 141.41 11.368 146.579 53.2799 166.796C56.6672 168.896 60.4481 169.946 64.2704 169.849C71.0547 168.925 75.7698 160.087 76.0751 151.811C76.5161 138.956 69.5622 127.708 62.9136 117.343L40.4237 82.7136C34.0464 72.8309 27.4318 62.6269 18.4087 56.4402C10.4358 51.5453 1.84294 48.221 -7.0324 46.5979L-72.8061 30.2071" stroke="#03fc56" stroke-miterlimit="10"/>
            <path d="M476.38 296.223C485.101 292.309 492.93 286.036 499.243 277.904C505.145 269.387 508.028 257.175 504.297 247.091C501.021 239.89 496.047 233.972 489.982 230.058C455.077 203.142 301.482 142.521 297.208 231.705C292.357 332.78 427.228 321.934 476.38 296.223Z" stroke="#03fc56" stroke-miterlimit="10"/>
            <path d="M-78.2665 806.761C-41.699 850.188 4.19687 887.107 55.8594 891.808C84.7606 894.459 113.526 886.907 142.122 881.443C238.273 863.133 336.552 867.942 431.1 895.584C458.746 886.786 486.833 877.747 510.985 859.428C529.676 845.367 545.789 826.003 566.447 816.563C589.615 805.957 617.058 808.528 637.682 792.057C656.068 777.233 664.548 750.317 668.958 724.525C678.185 670.773 674.318 613.165 653.965 563.832C633.612 514.499 596.094 474.566 551.352 460.465C501.928 444.918 449.892 461.028 398.705 464.483C323.967 469.542 249.697 447.574 185.745 401.491C131.471 362.241 82.861 304.793 19.9026 294.991C-22.5333 288.965 -65.8512 305.757 -101.096 334.321" stroke="#03fc56" stroke-miterlimit="10"/>
            <path d="M-75.7569 760C-44.8543 792.541 -7.03166 820.501 35.099 824.599C58.8442 826.889 82.1484 821.586 105.486 817.89C184.15 805.673 264.04 810.684 341.174 832.674C354.336 829.018 367.599 825.322 380.32 820.18C389.479 816.578 398.327 811.951 406.745 806.36C422.247 795.835 435.883 781.131 452.708 773.498C471.705 764.941 493.415 765.705 509.765 751.524C523.978 739.07 530.457 717.697 533.51 697.048C539.989 654.183 535.715 608.426 518.245 570.301C509.156 550.609 496.765 533.324 481.831 519.507C466.898 505.691 449.739 495.634 431.406 489.954C391.65 477.902 349.994 489.312 309.05 491.32C249.129 493.883 189.802 476.485 137.814 441.103C93.3425 410.772 52.6705 367.425 1.55052 360.757C-32.88 356.137 -67.9889 369.595 -96.8223 392.333" stroke="#03fc56" stroke-miterlimit="10"/>
            <path d="M-73.213 713.229C-48.0433 734.842 -18.2604 753.925 14.338 757.42C32.5876 759.348 50.7695 756.295 68.8495 754.326C129.976 748.226 191.532 753.417 251.312 769.713C261.489 767.503 271.665 765.254 281.841 762.04C288.969 759.761 295.916 756.75 302.601 753.041C314.949 746.051 326.041 735.967 339.067 730.222C353.89 723.634 370.173 722.549 382.011 710.698C392.188 700.695 396.563 684.786 398.327 669.319C402.059 637.382 397.31 603.435 382.757 576.479C367.154 547.554 340.831 527.547 311.76 519.312C281.638 510.835 250.363 517.464 219.562 517.866C174.451 517.992 129.986 505.158 89.9825 480.464C55.1792 459.092 22.6487 429.806 -16.6661 425.909C-43.1587 423.297 -70.0244 433.26 -92.582 450.013" stroke="#03fc56" stroke-miterlimit="10"/>
            <path d="M-70.6695 666.593C-51.1986 677.319 -29.489 687.523 -6.42246 690.295C6.44027 691.271 19.3387 691.405 32.214 690.696C75.6712 690.714 119.008 696.1 161.522 706.766C168.815 706.043 176.142 705.279 183.334 703.913C188.458 703.051 193.517 701.708 198.462 699.896C207.621 696.401 216.237 691.018 225.396 687.081C236.081 682.541 246.834 679.649 254.297 670.088C259.886 662.198 263.002 652.264 263.117 641.967C264.301 620.647 258.643 599.584 247.275 582.993C233.707 564.272 213.354 554.189 192.051 548.966C171.699 543.905 150.701 545.873 130.009 544.668C99.7539 542.44 70.0417 534.112 42.1529 520.042C16.9833 507.709 -7.40618 492.443 -34.9164 491.519C-53.6844 491.23 -72.157 497.068 -88.3086 508.392" stroke="#03fc56" stroke-miterlimit="10"/>
            <path d="M-68.126 619.67C-16.5314 619.107 33.6385 639.073 84.8261 645.742C100.464 647.791 120.003 646.063 126.583 629.15C132.248 614.487 123.632 596.771 111.794 588.977C99.9551 581.184 85.8437 580.179 72.3769 578.05C46.0199 574.033 20.5109 564.351 -5.64255 559.128C-31.796 553.906 -59.7813 553.143 -84.0352 566.159" stroke="#03fc56" stroke-miterlimit="10"/>
            <path d="M685.507 101.354C695.276 117.624 710.575 131.604 727.366 129.877C751.111 127.426 764.069 97.7379 777.943 74.7587C804.333 31.3312 846.43 4.49536 889.883 -10.4492C932.421 -25.1125 981.03 -32.1831 1009.73 -72.1557C1034.83 -107.187 1036.86 -157.564 1033.3 -203.362C1029.1 -258.36 1018.11 -314.361 990.664 -358.994C963.221 -403.627 916.579 -434.761 870.48 -426.526C853.932 -423.868 838.414 -415.483 825.874 -402.422C805.046 -380.005 797.21 -345.697 790.358 -313.397C774.517 -238.715 768.445 -147.601 723.533 -88.4259C682.861 -35.3567 643.919 31.2508 685.507 101.354Z" stroke="#03fc56" stroke-miterlimit="10"/>
        </g>
        <path d="M-64.1562 -992.557L-64.1562 2020.43H1631.92L1631.92 -992.557H-64.1562Z" stroke="#505050" stroke-miterlimit="10"/>
    </g>
    <defs>
        <clipPath id="clip0_622_1810">
            <rect width="3200" height="2013.71" fill="white" transform="matrix(0 -1 1 0 -134 2125)"/>
        </clipPath>
    </defs>
</svg>
